<?xml version="1.0" encoding="utf-8"?>
<!-- Generator: Adobe Illustrator 17.1.0, SVG Export Plug-In . SVG Version: 6.00 Build 0)  -->
<!DOCTYPE svg PUBLIC "-//W3C//DTD SVG 1.1//EN" "http://www.w3.org/Graphics/SVG/1.1/DTD/svg11.dtd">
<svg version="1.1" id="Capa_1" xmlns="http://www.w3.org/2000/svg" xmlns:xlink="http://www.w3.org/1999/xlink" x="0px" y="0px"
	 viewBox="294.9 413.4 49 49" enable-background="new 294.9 413.4 49 49" xml:space="preserve">
<g>
	<g>
		<g>
			<path fill="#B9BBC1" d="M300.4,413.4h29c3.1,0,5.6,3.2,5.6,7v19.7c0,3.9-2.5,7-5.6,7h-15.6v5.6c0,0.6-0.3,1.1-0.7,1.3
				c-0.1,0.1-0.3,0.1-0.4,0.1c-0.3,0-0.6-0.1-0.8-0.4l-5.2-6.6h-6.2c-3.1,0-5.6-3.2-5.6-7v-19.7
				C294.9,416.5,297.4,413.4,300.4,413.4z"/>
		</g>
		<g>
			<g>
				<path fill="#8B8996" d="M324.9,423.2h3.3c0.6,0,1.1-0.6,1.1-1.4s-0.5-1.4-1.1-1.4h-3.3c-0.6,0-1.1,0.6-1.1,1.4
					S324.3,423.2,324.9,423.2z"/>
			</g>
		</g>
		<g>
			<g>
				<path fill="#8B8996" d="M301.6,423.2h18.9c0.6,0,1.1-0.6,1.1-1.4s-0.5-1.4-1.1-1.4h-18.9c-0.6,0-1.1,0.6-1.1,1.4
					S300.9,423.2,301.6,423.2z"/>
			</g>
		</g>
		<g>
			<g>
				<path fill="#8B8996" d="M301.6,428.9h26.7c0.6,0,1.1-0.6,1.1-1.4s-0.5-1.4-1.1-1.4h-26.7c-0.6,0-1.1,0.6-1.1,1.4
					S300.9,428.9,301.6,428.9z"/>
			</g>
		</g>
		<g>
			<g>
				<path fill="#8B8996" d="M301.6,434.5h3.3c0.6,0,1.1-0.6,1.1-1.4s-0.5-1.4-1.1-1.4h-3.3c-0.6,0-1.1,0.6-1.1,1.4
					S300.9,434.5,301.6,434.5z"/>
			</g>
		</g>
		<g>
			<g>
				<path fill="#8B8996" d="M309.4,434.5h18.9c0.6,0,1.1-0.6,1.1-1.4s-0.5-1.4-1.1-1.4h-18.9c-0.6,0-1.1,0.6-1.1,1.4
					S308.7,434.5,309.4,434.5z"/>
			</g>
		</g>
		<g>
			<g>
				<path fill="#8B8996" d="M301.6,440.1h26.7c0.6,0,1.1-0.6,1.1-1.4c0-0.8-0.5-1.4-1.1-1.4h-26.7c-0.6,0-1.1,0.6-1.1,1.4
					C300.4,439.5,300.9,440.1,301.6,440.1z"/>
			</g>
		</g>
	</g>
	<g>
		<g>
			<path fill="#D8DCE1" d="M338.3,421.8h-29c-3.1,0-5.6,3.2-5.6,7v19.7c0,3.9,2.5,7,5.6,7h15.6v5.6c0,0.6,0.3,1.1,0.7,1.3
				c0.1,0.1,0.3,0.1,0.4,0.1c0.3,0,0.6-0.1,0.8-0.4l5.2-6.6h6.2c3.1,0,5.6-3.2,5.6-7v-19.7C343.9,424.9,341.4,421.8,338.3,421.8z"/>
		</g>
		<g>
			<g>
				<path fill="#8B8996" d="M313.8,431.6h-3.3c-0.6,0-1.1-0.6-1.1-1.4s0.5-1.4,1.1-1.4h3.3c0.6,0,1.1,0.6,1.1,1.4
					S314.4,431.6,313.8,431.6z"/>
			</g>
		</g>
		<g>
			<g>
				<path fill="#8B8996" d="M337.2,431.6h-18.9c-0.6,0-1.1-0.6-1.1-1.4s0.5-1.4,1.1-1.4h18.9c0.6,0,1.1,0.6,1.1,1.4
					S337.8,431.6,337.2,431.6z"/>
			</g>
		</g>
		<g>
			<g>
				<path fill="#8B8996" d="M337.2,437.3h-26.7c-0.6,0-1.1-0.6-1.1-1.4c0-0.8,0.5-1.4,1.1-1.4h26.7c0.6,0,1.1,0.6,1.1,1.4
					C338.3,436.6,337.8,437.3,337.2,437.3z"/>
			</g>
		</g>
		<g>
			<g>
				<path fill="#8B8996" d="M337.2,442.9h-3.3c-0.6,0-1.1-0.6-1.1-1.4c0-0.8,0.5-1.4,1.1-1.4h3.3c0.6,0,1.1,0.6,1.1,1.4
					C338.3,442.3,337.8,442.9,337.2,442.9z"/>
			</g>
		</g>
		<g>
			<g>
				<path fill="#8B8996" d="M329.4,442.9h-18.9c-0.6,0-1.1-0.6-1.1-1.4c0-0.8,0.5-1.4,1.1-1.4h18.9c0.6,0,1.1,0.6,1.1,1.4
					C330.5,442.3,330,442.9,329.4,442.9z"/>
			</g>
		</g>
		<g>
			<g>
				<path fill="#8B8996" d="M337.2,448.5h-26.7c-0.6,0-1.1-0.6-1.1-1.4s0.5-1.4,1.1-1.4h26.7c0.6,0,1.1,0.6,1.1,1.4
					S337.8,448.5,337.2,448.5z"/>
			</g>
		</g>
	</g>
</g>
</svg>
